<?xml version="1.0" encoding="UTF-8" standalone="no"?><svg xmlns="http://www.w3.org/2000/svg" xmlns:xlink="http://www.w3.org/1999/xlink" clip-rule="evenodd" stroke-miterlimit="4.00" viewBox="0 0 1920 1080"><desc>SVG generated by Keynote</desc><defs></defs><g transform="matrix(1.00, 0.00, -0.00, -1.00, 0.0, 1080.0)"><path d="M 0.0 1080.0 L 1920.0 1080.0 L 1920.0 0.0 L 0.0 0.0 Z M 0.0 1080.0 " fill="#FEFFFF"></path><g><clipPath id="clip-11"><path d="M 385.0 1027.0 L 1813.0 1027.0 L 1813.0 339.0 L 385.0 339.0 Z M 384.7 1027.0 "></path></clipPath><g clip-path="url(#clip-11)"><image xlink:href="../../CFED3753-8FB5-4EF4-B13C-FB68859B1336/assets/CE0D9C227006CD79DB526A1F61615F22.jpeg" width="1025.00" height="768.00" transform="matrix(1.39, 0.00, -0.00, -1.39, 385.0, 1218.0)"></image></g></g><text xml:space="preserve" font-family="Helvetica-Light" font-size="112.0" fill="#000000" transform="matrix(1.00, 0.00, -0.00, -1.00, 483.0, 208.0)">T</text><text xml:space="preserve" font-family="Helvetica-Light" font-size="112.0" fill="#000000" transform="matrix(1.00, 0.00, -0.00, -1.00, 532.8, 208.0)">o</text><text xml:space="preserve" font-family="Helvetica-Light" font-size="112.0" fill="#000000" transform="matrix(1.00, 0.00, -0.00, -1.00, 595.1, 208.0)">t</text><text xml:space="preserve" font-family="Helvetica-Light" font-size="112.0" fill="#000000" transform="matrix(1.00, 0.00, -0.00, -1.00, 626.2, 208.0)">a</text><text xml:space="preserve" font-family="Helvetica-Light" font-size="112.0" fill="#000000" transform="matrix(1.00, 0.00, -0.00, -1.00, 688.5, 208.0)">l</text><text xml:space="preserve" font-family="Helvetica-Light" font-size="112.0" fill="#000000" transform="matrix(1.00, 0.00, -0.00, -1.00, 713.4, 208.0)">l</text><text xml:space="preserve" font-family="Helvetica-Light" font-size="112.0" fill="#000000" transform="matrix(1.00, 0.00, -0.00, -1.00, 738.2, 208.0)">y</text><text xml:space="preserve" font-family="Helvetica-Light" font-size="112.0" fill="#000000" transform="matrix(1.00, 0.00, -0.00, -1.00, 794.2, 208.0)"> </text><text xml:space="preserve" font-family="Helvetica-Light" font-size="112.0" fill="#000000" transform="matrix(1.00, 0.00, -0.00, -1.00, 825.4, 208.0)">a</text><text xml:space="preserve" font-family="Helvetica-Light" font-size="112.0" fill="#000000" transform="matrix(1.00, 0.00, -0.00, -1.00, 887.7, 208.0)"> </text><text xml:space="preserve" font-family="Helvetica-Light" font-size="112.0" fill="#000000" transform="matrix(1.00, 0.00, -0.00, -1.00, 918.8, 208.0)">w</text><text xml:space="preserve" font-family="Helvetica-Light" font-size="112.0" fill="#000000" transform="matrix(1.00, 0.00, -0.00, -1.00, 999.7, 208.0)">o</text><text xml:space="preserve" font-family="Helvetica-Light" font-size="112.0" fill="#000000" transform="matrix(1.00, 0.00, -0.00, -1.00, 1061.9, 208.0)">r</text><text xml:space="preserve" font-family="Helvetica-Light" font-size="112.0" fill="#000000" transform="matrix(1.00, 0.00, -0.00, -1.00, 1101.2, 208.0)">m</text><text xml:space="preserve" font-family="Helvetica-Light" font-size="112.0" fill="#000000" transform="matrix(1.00, 0.00, -0.00, -1.00, 1194.5, 208.0)">h</text><text xml:space="preserve" font-family="Helvetica-Light" font-size="112.0" fill="#000000" transform="matrix(1.00, 0.00, -0.00, -1.00, 1256.8, 208.0)">o</text><text xml:space="preserve" font-family="Helvetica-Light" font-size="112.0" fill="#000000" transform="matrix(1.00, 0.00, -0.00, -1.00, 1319.1, 208.0)">l</text><text xml:space="preserve" font-family="Helvetica-Light" font-size="112.0" fill="#000000" transform="matrix(1.00, 0.00, -0.00, -1.00, 1343.9, 208.0)">e</text><text xml:space="preserve" font-family="Helvetica-Light" font-size="112.0" fill="#000000" transform="matrix(1.00, 0.00, -0.00, -1.00, 1406.2, 208.0)">.</text><text xml:space="preserve" font-family="Helvetica-Light" font-size="50.0" fill="#000000" transform="matrix(1.00, 0.00, -0.00, -1.00, 717.0, 91.0)">(</text><text xml:space="preserve" font-family="Helvetica-Light" font-size="50.0" fill="#000000" transform="matrix(1.00, 0.00, -0.00, -1.00, 733.6, 91.0)">I</text><text xml:space="preserve" font-family="Helvetica-Light" font-size="50.0" fill="#000000" transform="matrix(1.00, 0.00, -0.00, -1.00, 747.5, 91.0)">n</text><text xml:space="preserve" font-family="Helvetica-Light" font-size="50.0" fill="#000000" transform="matrix(1.00, 0.00, -0.00, -1.00, 775.4, 91.0)">c</text><text xml:space="preserve" font-family="Helvetica-Light" font-size="50.0" fill="#000000" transform="matrix(1.00, 0.00, -0.00, -1.00, 803.1, 91.0)">l</text><text xml:space="preserve" font-family="Helvetica-Light" font-size="50.0" fill="#000000" transform="matrix(1.00, 0.00, -0.00, -1.00, 814.2, 91.0)">u</text><text xml:space="preserve" font-family="Helvetica-Light" font-size="50.0" fill="#000000" transform="matrix(1.00, 0.00, -0.00, -1.00, 842.0, 91.0)">d</text><text xml:space="preserve" font-family="Helvetica-Light" font-size="50.0" fill="#000000" transform="matrix(1.00, 0.00, -0.00, -1.00, 872.6, 91.0)">i</text><text xml:space="preserve" font-family="Helvetica-Light" font-size="50.0" fill="#000000" transform="matrix(1.00, 0.00, -0.00, -1.00, 883.7, 91.0)">n</text><text xml:space="preserve" font-family="Helvetica-Light" font-size="50.0" fill="#000000" transform="matrix(1.00, 0.00, -0.00, -1.00, 911.5, 91.0)">g</text><text xml:space="preserve" font-family="Helvetica-Light" font-size="50.0" fill="#000000" transform="matrix(1.00, 0.00, -0.00, -1.00, 942.0, 91.0)"> </text><text xml:space="preserve" font-family="Helvetica-Light" font-size="50.0" fill="#000000" transform="matrix(1.00, 0.00, -0.00, -1.00, 956.0, 91.0)">t</text><text xml:space="preserve" font-family="Helvetica-Light" font-size="50.0" fill="#000000" transform="matrix(1.00, 0.00, -0.00, -1.00, 969.9, 91.0)">i</text><text xml:space="preserve" font-family="Helvetica-Light" font-size="50.0" fill="#000000" transform="matrix(1.00, 0.00, -0.00, -1.00, 981.0, 91.0)">m</text><text xml:space="preserve" font-family="Helvetica-Light" font-size="50.0" fill="#000000" transform="matrix(1.00, 0.00, -0.00, -1.00, 1022.6, 91.0)">e</text><text xml:space="preserve" font-family="Helvetica-Light" font-size="50.0" fill="#000000" transform="matrix(1.00, 0.00, -0.00, -1.00, 1050.4, 91.0)"> </text><text xml:space="preserve" font-family="Helvetica-Light" font-size="50.0" fill="#000000" transform="matrix(1.00, 0.00, -0.00, -1.00, 1064.3, 91.0)">t</text><text xml:space="preserve" font-family="Helvetica-Light" font-size="50.0" fill="#000000" transform="matrix(1.00, 0.00, -0.00, -1.00, 1078.2, 91.0)">r</text><text xml:space="preserve" font-family="Helvetica-Light" font-size="50.0" fill="#000000" transform="matrix(1.00, 0.00, -0.00, -1.00, 1094.8, 91.0)">a</text><text xml:space="preserve" font-family="Helvetica-Light" font-size="50.0" fill="#000000" transform="matrix(1.00, 0.00, -0.00, -1.00, 1122.7, 91.0)">v</text><text xml:space="preserve" font-family="Helvetica-Light" font-size="50.0" fill="#000000" transform="matrix(1.00, 0.00, -0.00, -1.00, 1147.7, 91.0)">e</text><text xml:space="preserve" font-family="Helvetica-Light" font-size="50.0" fill="#000000" transform="matrix(1.00, 0.00, -0.00, -1.00, 1175.5, 91.0)">l</text><text xml:space="preserve" font-family="Helvetica-Light" font-size="50.0" fill="#000000" transform="matrix(1.00, 0.00, -0.00, -1.00, 1186.5, 91.0)">)</text></g></svg>