<?xml version="1.0" encoding="UTF-8" standalone="no"?><svg xmlns="http://www.w3.org/2000/svg" xmlns:xlink="http://www.w3.org/1999/xlink" clip-rule="evenodd" stroke-miterlimit="4.00" viewBox="0 0 1920 1080"><desc>SVG generated by Keynote</desc><defs></defs><g transform="matrix(1.00, 0.00, -0.00, -1.00, 0.0, 1080.0)"><path d="M 0.0 1080.0 L 1920.0 1080.0 L 1920.0 0.0 L 0.0 0.0 Z M 0.0 1080.0 " fill="#FEFFFF"></path><g><clipPath id="clip-2"><path d="M 246.0 1027.0 L 1674.0 1027.0 L 1674.0 339.0 L 246.0 339.0 Z M 246.1 1027.0 "></path></clipPath><g clip-path="url(#clip-2)"><image xlink:href="../../323880BA-2853-4304-ADAF-B6CD917FF5AC/assets/50A5E3D147A334433D8A8E1438AE9FD6.jpeg" width="1024.00" height="768.00" transform="matrix(1.47, 0.00, -0.00, -1.47, 255.0, 1152.0)"></image></g></g><text xml:space="preserve" font-family="Helvetica-Light" font-size="89.6" fill="#000000" transform="matrix(1.00, 0.00, -0.00, -1.00, 83.0, 203.0)">I</text><text xml:space="preserve" font-family="Helvetica-Light" font-size="89.6" fill="#000000" transform="matrix(1.00, 0.00, -0.00, -1.00, 107.9, 203.0)">'</text><text xml:space="preserve" font-family="Helvetica-Light" font-size="89.6" fill="#000000" transform="matrix(1.00, 0.00, -0.00, -1.00, 127.8, 203.0)">m</text><text xml:space="preserve" font-family="Helvetica-Light" font-size="89.6" fill="#000000" transform="matrix(1.00, 0.00, -0.00, -1.00, 202.4, 203.0)"> </text><text xml:space="preserve" font-family="Helvetica-Light" font-size="89.6" fill="#000000" transform="matrix(1.00, 0.00, -0.00, -1.00, 227.3, 203.0)">n</text><text xml:space="preserve" font-family="Helvetica-Light" font-size="89.6" fill="#000000" transform="matrix(1.00, 0.00, -0.00, -1.00, 277.2, 203.0)">o</text><text xml:space="preserve" font-family="Helvetica-Light" font-size="89.6" fill="#000000" transform="matrix(1.00, 0.00, -0.00, -1.00, 327.0, 203.0)">t</text><text xml:space="preserve" font-family="Helvetica-Light" font-size="89.6" fill="#000000" transform="matrix(1.00, 0.00, -0.00, -1.00, 351.9, 203.0)"> </text><text xml:space="preserve" font-family="Helvetica-Light" font-size="89.6" fill="#000000" transform="matrix(1.00, 0.00, -0.00, -1.00, 376.8, 203.0)">a</text><text xml:space="preserve" font-family="Helvetica-Light" font-size="89.6" fill="#000000" transform="matrix(1.00, 0.00, -0.00, -1.00, 426.6, 203.0)"> </text><text xml:space="preserve" font-family="Helvetica-Light" font-size="89.6" fill="#000000" transform="matrix(1.00, 0.00, -0.00, -1.00, 451.5, 203.0)">n</text><text xml:space="preserve" font-family="Helvetica-Light" font-size="89.6" fill="#000000" transform="matrix(1.00, 0.00, -0.00, -1.00, 501.3, 203.0)">u</text><text xml:space="preserve" font-family="Helvetica-Light" font-size="89.6" fill="#000000" transform="matrix(1.00, 0.00, -0.00, -1.00, 551.2, 203.0)">m</text><text xml:space="preserve" font-family="Helvetica-Light" font-size="89.6" fill="#000000" transform="matrix(1.00, 0.00, -0.00, -1.00, 625.8, 203.0)">b</text><text xml:space="preserve" font-family="Helvetica-Light" font-size="89.6" fill="#000000" transform="matrix(1.00, 0.00, -0.00, -1.00, 680.5, 203.0)">e</text><text xml:space="preserve" font-family="Helvetica-Light" font-size="89.6" fill="#000000" transform="matrix(1.00, 0.00, -0.00, -1.00, 730.4, 203.0)">r</text><text xml:space="preserve" font-family="Helvetica-Light" font-size="89.6" fill="#000000" transform="matrix(1.00, 0.00, -0.00, -1.00, 752.0, 203.0)">,</text><text xml:space="preserve" font-family="Helvetica-Light" font-size="89.6" fill="#000000" transform="matrix(1.00, 0.00, -0.00, -1.00, 776.9, 203.0)"> </text><text xml:space="preserve" font-family="Helvetica-Light" font-size="89.6" fill="#000000" transform="matrix(1.00, 0.00, -0.00, -1.00, 801.8, 203.0)">I</text><text xml:space="preserve" font-family="Helvetica-Light" font-size="89.6" fill="#000000" transform="matrix(1.00, 0.00, -0.00, -1.00, 826.7, 203.0)">'</text><text xml:space="preserve" font-family="Helvetica-Light" font-size="89.6" fill="#000000" transform="matrix(1.00, 0.00, -0.00, -1.00, 846.6, 203.0)">m</text><text xml:space="preserve" font-family="Helvetica-Light" font-size="89.6" fill="#000000" transform="matrix(1.00, 0.00, -0.00, -1.00, 921.2, 203.0)"> </text><text xml:space="preserve" font-family="Helvetica-Light" font-size="89.6" fill="#000000" transform="matrix(1.00, 0.00, -0.00, -1.00, 946.1, 203.0)">a</text><text xml:space="preserve" font-family="Helvetica-Light" font-size="89.6" fill="#000000" transform="matrix(1.00, 0.00, -0.00, -1.00, 995.9, 203.0)"> </text><text xml:space="preserve" font-family="Helvetica-Light" font-size="89.6" fill="#000000" transform="matrix(1.00, 0.00, -0.00, -1.00, 1020.8, 203.0)">f</text><text xml:space="preserve" font-family="Helvetica-Light" font-size="89.6" fill="#000000" transform="matrix(1.00, 0.00, -0.00, -1.00, 1045.8, 203.0)">r</text><text xml:space="preserve" font-family="Helvetica-Light" font-size="89.6" fill="#000000" transform="matrix(1.00, 0.00, -0.00, -1.00, 1074.0, 203.0)">e</text><text xml:space="preserve" font-family="Helvetica-Light" font-size="89.6" fill="#000000" transform="matrix(1.00, 0.00, -0.00, -1.00, 1123.8, 203.0)">e</text><text xml:space="preserve" font-family="Helvetica-Light" font-size="89.6" fill="#000000" transform="matrix(1.00, 0.00, -0.00, -1.00, 1173.6, 203.0)"> </text><text xml:space="preserve" font-family="Helvetica-Light" font-size="89.6" fill="#000000" transform="matrix(1.00, 0.00, -0.00, -1.00, 1198.5, 203.0)">ï¬</text><text xml:space="preserve" font-family="Helvetica-Light" font-size="89.6" fill="#000000" transform="matrix(1.00, 0.00, -0.00, -1.00, 1243.3, 203.0)">l</text><text xml:space="preserve" font-family="Helvetica-Light" font-size="89.6" fill="#000000" transform="matrix(1.00, 0.00, -0.00, -1.00, 1263.2, 203.0)">e</text><text xml:space="preserve" font-family="Helvetica-Light" font-size="89.6" fill="#000000" transform="matrix(1.00, 0.00, -0.00, -1.00, 1313.0, 203.0)"> </text><text xml:space="preserve" font-family="Helvetica-Light" font-size="89.6" fill="#000000" transform="matrix(1.00, 0.00, -0.00, -1.00, 1337.9, 203.0)">d</text><text xml:space="preserve" font-family="Helvetica-Light" font-size="89.6" fill="#000000" transform="matrix(1.00, 0.00, -0.00, -1.00, 1392.7, 203.0)">e</text><text xml:space="preserve" font-family="Helvetica-Light" font-size="89.6" fill="#000000" transform="matrix(1.00, 0.00, -0.00, -1.00, 1442.5, 203.0)">s</text><text xml:space="preserve" font-family="Helvetica-Light" font-size="89.6" fill="#000000" transform="matrix(1.00, 0.00, -0.00, -1.00, 1487.3, 203.0)">c</text><text xml:space="preserve" font-family="Helvetica-Light" font-size="89.6" fill="#000000" transform="matrix(1.00, 0.00, -0.00, -1.00, 1537.1, 203.0)">r</text><text xml:space="preserve" font-family="Helvetica-Light" font-size="89.6" fill="#000000" transform="matrix(1.00, 0.00, -0.00, -1.00, 1567.0, 203.0)">i</text><text xml:space="preserve" font-family="Helvetica-Light" font-size="89.6" fill="#000000" transform="matrix(1.00, 0.00, -0.00, -1.00, 1586.8, 203.0)">p</text><text xml:space="preserve" font-family="Helvetica-Light" font-size="89.6" fill="#000000" transform="matrix(1.00, 0.00, -0.00, -1.00, 1641.6, 203.0)">t</text><text xml:space="preserve" font-family="Helvetica-Light" font-size="89.6" fill="#000000" transform="matrix(1.00, 0.00, -0.00, -1.00, 1666.5, 203.0)">o</text><text xml:space="preserve" font-family="Helvetica-Light" font-size="89.6" fill="#000000" transform="matrix(1.00, 0.00, -0.00, -1.00, 1716.3, 203.0)">r</text><text xml:space="preserve" font-family="Helvetica-Light" font-size="89.6" fill="#000000" transform="matrix(1.00, 0.00, -0.00, -1.00, 1746.2, 203.0)">!</text><text xml:space="preserve" font-family="Helvetica-Light" font-size="89.6" fill="#000000" transform="matrix(1.00, 0.00, -0.00, -1.00, 1776.0, 203.0)">!</text><text xml:space="preserve" font-family="Helvetica-Light" font-size="89.6" fill="#000000" transform="matrix(1.00, 0.00, -0.00, -1.00, 1805.8, 203.0)">1</text><text xml:space="preserve" font-family="Helvetica-Light" font-size="44.0" fill="#000000" transform="matrix(1.00, 0.00, -0.00, -1.00, 402.0, 126.0)">(</text><text xml:space="preserve" font-family="Helvetica-Light" font-size="44.0" fill="#000000" transform="matrix(1.00, 0.00, -0.00, -1.00, 416.7, 126.0)">O</text><text xml:space="preserve" font-family="Helvetica-Light" font-size="44.0" fill="#000000" transform="matrix(1.00, 0.00, -0.00, -1.00, 450.9, 126.0)">u</text><text xml:space="preserve" font-family="Helvetica-Light" font-size="44.0" fill="#000000" transform="matrix(1.00, 0.00, -0.00, -1.00, 475.3, 126.0)">r</text><text xml:space="preserve" font-family="Helvetica-Light" font-size="44.0" fill="#000000" transform="matrix(1.00, 0.00, -0.00, -1.00, 490.0, 126.0)"> </text><text xml:space="preserve" font-family="Helvetica-Light" font-size="44.0" fill="#000000" transform="matrix(1.00, 0.00, -0.00, -1.00, 502.2, 126.0)">p</text><text xml:space="preserve" font-family="Helvetica-Light" font-size="44.0" fill="#000000" transform="matrix(1.00, 0.00, -0.00, -1.00, 529.1, 126.0)">r</text><text xml:space="preserve" font-family="Helvetica-Light" font-size="44.0" fill="#000000" transform="matrix(1.00, 0.00, -0.00, -1.00, 543.0, 126.0)">o</text><text xml:space="preserve" font-family="Helvetica-Light" font-size="44.0" fill="#000000" transform="matrix(1.00, 0.00, -0.00, -1.00, 567.4, 126.0)">t</text><text xml:space="preserve" font-family="Helvetica-Light" font-size="44.0" fill="#000000" transform="matrix(1.00, 0.00, -0.00, -1.00, 579.7, 126.0)">a</text><text xml:space="preserve" font-family="Helvetica-Light" font-size="44.0" fill="#000000" transform="matrix(1.00, 0.00, -0.00, -1.00, 604.1, 126.0)">g</text><text xml:space="preserve" font-family="Helvetica-Light" font-size="44.0" fill="#000000" transform="matrix(1.00, 0.00, -0.00, -1.00, 631.0, 126.0)">o</text><text xml:space="preserve" font-family="Helvetica-Light" font-size="44.0" fill="#000000" transform="matrix(1.00, 0.00, -0.00, -1.00, 655.5, 126.0)">n</text><text xml:space="preserve" font-family="Helvetica-Light" font-size="44.0" fill="#000000" transform="matrix(1.00, 0.00, -0.00, -1.00, 679.9, 126.0)">i</text><text xml:space="preserve" font-family="Helvetica-Light" font-size="44.0" fill="#000000" transform="matrix(1.00, 0.00, -0.00, -1.00, 689.7, 126.0)">s</text><text xml:space="preserve" font-family="Helvetica-Light" font-size="44.0" fill="#000000" transform="matrix(1.00, 0.00, -0.00, -1.00, 711.7, 126.0)">t</text><text xml:space="preserve" font-family="Helvetica-Light" font-size="44.0" fill="#000000" transform="matrix(1.00, 0.00, -0.00, -1.00, 723.9, 126.0)"> </text><text xml:space="preserve" font-family="Helvetica-Light" font-size="44.0" fill="#000000" transform="matrix(1.00, 0.00, -0.00, -1.00, 736.2, 126.0)">p</text><text xml:space="preserve" font-family="Helvetica-Light" font-size="44.0" fill="#000000" transform="matrix(1.00, 0.00, -0.00, -1.00, 763.1, 126.0)">r</text><text xml:space="preserve" font-family="Helvetica-Light" font-size="44.0" fill="#000000" transform="matrix(1.00, 0.00, -0.00, -1.00, 776.9, 126.0)">o</text><text xml:space="preserve" font-family="Helvetica-Light" font-size="44.0" fill="#000000" transform="matrix(1.00, 0.00, -0.00, -1.00, 801.4, 126.0)">m</text><text xml:space="preserve" font-family="Helvetica-Light" font-size="44.0" fill="#000000" transform="matrix(1.00, 0.00, -0.00, -1.00, 838.0, 126.0)">p</text><text xml:space="preserve" font-family="Helvetica-Light" font-size="44.0" fill="#000000" transform="matrix(1.00, 0.00, -0.00, -1.00, 864.9, 126.0)">t</text><text xml:space="preserve" font-family="Helvetica-Light" font-size="44.0" fill="#000000" transform="matrix(1.00, 0.00, -0.00, -1.00, 877.2, 126.0)">l</text><text xml:space="preserve" font-family="Helvetica-Light" font-size="44.0" fill="#000000" transform="matrix(1.00, 0.00, -0.00, -1.00, 886.9, 126.0)">y</text><text xml:space="preserve" font-family="Helvetica-Light" font-size="44.0" fill="#000000" transform="matrix(1.00, 0.00, -0.00, -1.00, 908.9, 126.0)"> </text><text xml:space="preserve" font-family="Helvetica-Light" font-size="44.0" fill="#000000" transform="matrix(1.00, 0.00, -0.00, -1.00, 921.2, 126.0)">d</text><text xml:space="preserve" font-family="Helvetica-Light" font-size="44.0" fill="#000000" transform="matrix(1.00, 0.00, -0.00, -1.00, 948.0, 126.0)">i</text><text xml:space="preserve" font-family="Helvetica-Light" font-size="44.0" fill="#000000" transform="matrix(1.00, 0.00, -0.00, -1.00, 957.8, 126.0)">s</text><text xml:space="preserve" font-family="Helvetica-Light" font-size="44.0" fill="#000000" transform="matrix(1.00, 0.00, -0.00, -1.00, 979.8, 126.0)">a</text><text xml:space="preserve" font-family="Helvetica-Light" font-size="44.0" fill="#000000" transform="matrix(1.00, 0.00, -0.00, -1.00, 1004.3, 126.0)">p</text><text xml:space="preserve" font-family="Helvetica-Light" font-size="44.0" fill="#000000" transform="matrix(1.00, 0.00, -0.00, -1.00, 1031.2, 126.0)">p</text><text xml:space="preserve" font-family="Helvetica-Light" font-size="44.0" fill="#000000" transform="matrix(1.00, 0.00, -0.00, -1.00, 1058.0, 126.0)">e</text><text xml:space="preserve" font-family="Helvetica-Light" font-size="44.0" fill="#000000" transform="matrix(1.00, 0.00, -0.00, -1.00, 1082.5, 126.0)">a</text><text xml:space="preserve" font-family="Helvetica-Light" font-size="44.0" fill="#000000" transform="matrix(1.00, 0.00, -0.00, -1.00, 1107.0, 126.0)">r</text><text xml:space="preserve" font-family="Helvetica-Light" font-size="44.0" fill="#000000" transform="matrix(1.00, 0.00, -0.00, -1.00, 1121.6, 126.0)">s</text><text xml:space="preserve" font-family="Helvetica-Light" font-size="44.0" fill="#000000" transform="matrix(1.00, 0.00, -0.00, -1.00, 1143.6, 126.0)"> </text><text xml:space="preserve" font-family="Helvetica-Light" font-size="44.0" fill="#000000" transform="matrix(1.00, 0.00, -0.00, -1.00, 1155.9, 126.0)">d</text><text xml:space="preserve" font-family="Helvetica-Light" font-size="44.0" fill="#000000" transform="matrix(1.00, 0.00, -0.00, -1.00, 1182.7, 126.0)">o</text><text xml:space="preserve" font-family="Helvetica-Light" font-size="44.0" fill="#000000" transform="matrix(1.00, 0.00, -0.00, -1.00, 1207.2, 126.0)">w</text><text xml:space="preserve" font-family="Helvetica-Light" font-size="44.0" fill="#000000" transform="matrix(1.00, 0.00, -0.00, -1.00, 1239.0, 126.0)">n</text><text xml:space="preserve" font-family="Helvetica-Light" font-size="44.0" fill="#000000" transform="matrix(1.00, 0.00, -0.00, -1.00, 1263.4, 126.0)"> </text><text xml:space="preserve" font-family="Helvetica-Light" font-size="44.0" fill="#000000" transform="matrix(1.00, 0.00, -0.00, -1.00, 1275.7, 126.0)">a</text><text xml:space="preserve" font-family="Helvetica-Light" font-size="44.0" fill="#000000" transform="matrix(1.00, 0.00, -0.00, -1.00, 1300.1, 126.0)"> </text><text xml:space="preserve" font-family="Helvetica-Light" font-size="44.0" fill="#000000" transform="matrix(1.00, 0.00, -0.00, -1.00, 1312.4, 126.0)">w</text><text xml:space="preserve" font-family="Helvetica-Light" font-size="44.0" fill="#000000" transform="matrix(1.00, 0.00, -0.00, -1.00, 1344.1, 126.0)">o</text><text xml:space="preserve" font-family="Helvetica-Light" font-size="44.0" fill="#000000" transform="matrix(1.00, 0.00, -0.00, -1.00, 1368.6, 126.0)">r</text><text xml:space="preserve" font-family="Helvetica-Light" font-size="44.0" fill="#000000" transform="matrix(1.00, 0.00, -0.00, -1.00, 1384.0, 126.0)">m</text><text xml:space="preserve" font-family="Helvetica-Light" font-size="44.0" fill="#000000" transform="matrix(1.00, 0.00, -0.00, -1.00, 1420.7, 126.0)">h</text><text xml:space="preserve" font-family="Helvetica-Light" font-size="44.0" fill="#000000" transform="matrix(1.00, 0.00, -0.00, -1.00, 1445.2, 126.0)">o</text><text xml:space="preserve" font-family="Helvetica-Light" font-size="44.0" fill="#000000" transform="matrix(1.00, 0.00, -0.00, -1.00, 1469.6, 126.0)">l</text><text xml:space="preserve" font-family="Helvetica-Light" font-size="44.0" fill="#000000" transform="matrix(1.00, 0.00, -0.00, -1.00, 1479.4, 126.0)">e</text><text xml:space="preserve" font-family="Helvetica-Light" font-size="44.0" fill="#000000" transform="matrix(1.00, 0.00, -0.00, -1.00, 1503.8, 126.0)">)</text><text xml:space="preserve" font-family="Helvetica-Light" font-size="44.0" fill="#000000" transform="matrix(1.00, 0.00, -0.00, -1.00, 1518.5, 126.0)"> </text><text xml:space="preserve" font-family="Helvetica-Light" font-size="44.0" fill="#000000" transform="matrix(1.00, 0.00, -0.00, -1.00, 578.0, 73.0)">@</text><text xml:space="preserve" font-family="Helvetica-Light" font-size="44.0" fill="#000000" transform="matrix(1.00, 0.00, -0.00, -1.00, 613.2, 73.0)">a</text><text xml:space="preserve" font-family="Helvetica-Light" font-size="44.0" fill="#000000" transform="matrix(1.00, 0.00, -0.00, -1.00, 637.7, 73.0)">n</text><text xml:space="preserve" font-family="Helvetica-Light" font-size="44.0" fill="#000000" transform="matrix(1.00, 0.00, -0.00, -1.00, 662.1, 73.0)">t</text><text xml:space="preserve" font-family="Helvetica-Light" font-size="44.0" fill="#000000" transform="matrix(1.00, 0.00, -0.00, -1.00, 674.4, 73.0)">i</text><text xml:space="preserve" font-family="Helvetica-Light" font-size="44.0" fill="#000000" transform="matrix(1.00, 0.00, -0.00, -1.00, 684.1, 73.0)">f</text><text xml:space="preserve" font-family="Helvetica-Light" font-size="44.0" fill="#000000" transform="matrix(1.00, 0.00, -0.00, -1.00, 696.4, 73.0)">u</text><text xml:space="preserve" font-family="Helvetica-Light" font-size="44.0" fill="#000000" transform="matrix(1.00, 0.00, -0.00, -1.00, 720.8, 73.0)">c</text><text xml:space="preserve" font-family="Helvetica-Light" font-size="44.0" fill="#000000" transform="matrix(1.00, 0.00, -0.00, -1.00, 745.3, 73.0)">h</text><text xml:space="preserve" font-family="Helvetica-Light" font-size="44.0" fill="#000000" transform="matrix(1.00, 0.00, -0.00, -1.00, 769.8, 73.0)">s</text><text xml:space="preserve" font-family="Helvetica-Light" font-size="44.0" fill="#000000" transform="matrix(1.00, 0.00, -0.00, -1.00, 791.8, 73.0)">,</text><text xml:space="preserve" font-family="Helvetica-Light" font-size="44.0" fill="#000000" transform="matrix(1.00, 0.00, -0.00, -1.00, 804.0, 73.0)"> </text><text xml:space="preserve" font-family="Helvetica-Light" font-size="44.0" fill="#000000" transform="matrix(1.00, 0.00, -0.00, -1.00, 816.2, 73.0)">h</text><text xml:space="preserve" font-family="Helvetica-Light" font-size="44.0" fill="#000000" transform="matrix(1.00, 0.00, -0.00, -1.00, 840.7, 73.0)">t</text><text xml:space="preserve" font-family="Helvetica-Light" font-size="44.0" fill="#000000" transform="matrix(1.00, 0.00, -0.00, -1.00, 852.9, 73.0)">t</text><text xml:space="preserve" font-family="Helvetica-Light" font-size="44.0" fill="#000000" transform="matrix(1.00, 0.00, -0.00, -1.00, 865.1, 73.0)">p</text><text xml:space="preserve" font-family="Helvetica-Light" font-size="44.0" fill="#000000" transform="matrix(1.00, 0.00, -0.00, -1.00, 892.0, 73.0)">s</text><text xml:space="preserve" font-family="Helvetica-Light" font-size="44.0" fill="#000000" transform="matrix(1.00, 0.00, -0.00, -1.00, 914.0, 73.0)">:</text><text xml:space="preserve" font-family="Helvetica-Light" font-size="44.0" fill="#000000" transform="matrix(1.00, 0.00, -0.00, -1.00, 926.3, 73.0)">/</text><text xml:space="preserve" font-family="Helvetica-Light" font-size="44.0" fill="#000000" transform="matrix(1.00, 0.00, -0.00, -1.00, 938.5, 73.0)">/</text><text xml:space="preserve" font-family="Helvetica-Light" font-size="44.0" fill="#000000" transform="matrix(1.00, 0.00, -0.00, -1.00, 950.7, 73.0)">b</text><text xml:space="preserve" font-family="Helvetica-Light" font-size="44.0" fill="#000000" transform="matrix(1.00, 0.00, -0.00, -1.00, 977.6, 73.0)">o</text><text xml:space="preserve" font-family="Helvetica-Light" font-size="44.0" fill="#000000" transform="matrix(1.00, 0.00, -0.00, -1.00, 1002.1, 73.0)">i</text><text xml:space="preserve" font-family="Helvetica-Light" font-size="44.0" fill="#000000" transform="matrix(1.00, 0.00, -0.00, -1.00, 1011.8, 73.0)">n</text><text xml:space="preserve" font-family="Helvetica-Light" font-size="44.0" fill="#000000" transform="matrix(1.00, 0.00, -0.00, -1.00, 1036.3, 73.0)">k</text><text xml:space="preserve" font-family="Helvetica-Light" font-size="44.0" fill="#000000" transform="matrix(1.00, 0.00, -0.00, -1.00, 1058.3, 73.0)">o</text><text xml:space="preserve" font-family="Helvetica-Light" font-size="44.0" fill="#000000" transform="matrix(1.00, 0.00, -0.00, -1.00, 1082.8, 73.0)">r</text><text xml:space="preserve" font-family="Helvetica-Light" font-size="44.0" fill="#000000" transform="matrix(1.00, 0.00, -0.00, -1.00, 1093.4, 73.0)">.</text><text xml:space="preserve" font-family="Helvetica-Light" font-size="44.0" fill="#000000" transform="matrix(1.00, 0.00, -0.00, -1.00, 1105.6, 73.0)">n</text><text xml:space="preserve" font-family="Helvetica-Light" font-size="44.0" fill="#000000" transform="matrix(1.00, 0.00, -0.00, -1.00, 1130.1, 73.0)">e</text><text xml:space="preserve" font-family="Helvetica-Light" font-size="44.0" fill="#000000" transform="matrix(1.00, 0.00, -0.00, -1.00, 1154.5, 73.0)">t</text><text xml:space="preserve" font-family="Helvetica-Light" font-size="44.0" fill="#000000" transform="matrix(1.00, 0.00, -0.00, -1.00, 1166.8, 73.0)">/</text><text xml:space="preserve" font-family="Helvetica-Light" font-size="44.0" fill="#000000" transform="matrix(1.00, 0.00, -0.00, -1.00, 1179.0, 73.0)">g</text><text xml:space="preserve" font-family="Helvetica-Light" font-size="44.0" fill="#000000" transform="matrix(1.00, 0.00, -0.00, -1.00, 1205.9, 73.0)">o</text><text xml:space="preserve" font-family="Helvetica-Light" font-size="44.0" fill="#000000" transform="matrix(1.00, 0.00, -0.00, -1.00, 1230.3, 73.0)">/</text><text xml:space="preserve" font-family="Helvetica-Light" font-size="44.0" fill="#000000" transform="matrix(1.00, 0.00, -0.00, -1.00, 1242.6, 73.0)">f</text><text xml:space="preserve" font-family="Helvetica-Light" font-size="44.0" fill="#000000" transform="matrix(1.00, 0.00, -0.00, -1.00, 1254.8, 73.0)">d</text><text xml:space="preserve" font-family="Helvetica-Light" font-size="44.0" fill="#000000" transform="matrix(1.00, 0.00, -0.00, -1.00, 1281.7, 73.0)">f</text><text xml:space="preserve" font-family="Helvetica-Light" font-size="44.0" fill="#000000" transform="matrix(1.00, 0.00, -0.00, -1.00, 1293.9, 73.0)">u</text><text xml:space="preserve" font-family="Helvetica-Light" font-size="44.0" fill="#000000" transform="matrix(1.00, 0.00, -0.00, -1.00, 1318.4, 73.0)">n</text><g><clipPath id="clip-3"><path d="M 814.8 67.7 L 1342.4 67.7 L 1342.4 71.9 L 814.8 71.9 Z M 814.8 67.7 "></path></clipPath><g clip-path="url(#clip-3)"><path d="M 765.8 103.2 L 1292.4 103.2 " fill="none" stroke="#000000" stroke-width="2.20" stroke-miterlimit="0.00" transform="matrix(1.00, 0.00, 0.00, -1.00, 50.0, 173.0)"></path></g></g></g></svg>