<?xml version="1.0" encoding="UTF-8" standalone="no"?><svg xmlns="http://www.w3.org/2000/svg" xmlns:xlink="http://www.w3.org/1999/xlink" clip-rule="evenodd" stroke-miterlimit="4.00" viewBox="0 0 1920 1080"><desc>SVG generated by Keynote</desc><defs></defs><g transform="matrix(1.00, 0.00, -0.00, -1.00, 0.0, 1080.0)"><path d="M 0.0 1080.0 L 1920.0 1080.0 L 1920.0 0.0 L 0.0 0.0 Z M 0.0 1080.0 " fill="#FEFFFF"></path><text xml:space="preserve" font-family="Helvetica-Light" font-size="100.8" fill="#000000" transform="matrix(1.00, 0.00, -0.00, -1.00, 565.0, 681.0)">C</text><text xml:space="preserve" font-family="Helvetica-Light" font-size="100.8" fill="#000000" transform="matrix(1.00, 0.00, -0.00, -1.00, 637.8, 681.0)">o</text><text xml:space="preserve" font-family="Helvetica-Light" font-size="100.8" fill="#000000" transform="matrix(1.00, 0.00, -0.00, -1.00, 693.8, 681.0)">n</text><text xml:space="preserve" font-family="Helvetica-Light" font-size="100.8" fill="#000000" transform="matrix(1.00, 0.00, -0.00, -1.00, 749.9, 681.0)">c</text><text xml:space="preserve" font-family="Helvetica-Light" font-size="100.8" fill="#000000" transform="matrix(1.00, 0.00, -0.00, -1.00, 805.9, 681.0)">l</text><text xml:space="preserve" font-family="Helvetica-Light" font-size="100.8" fill="#000000" transform="matrix(1.00, 0.00, -0.00, -1.00, 828.3, 681.0)">u</text><text xml:space="preserve" font-family="Helvetica-Light" font-size="100.8" fill="#000000" transform="matrix(1.00, 0.00, -0.00, -1.00, 884.3, 681.0)">s</text><text xml:space="preserve" font-family="Helvetica-Light" font-size="100.8" fill="#000000" transform="matrix(1.00, 0.00, -0.00, -1.00, 934.7, 681.0)">i</text><text xml:space="preserve" font-family="Helvetica-Light" font-size="100.8" fill="#000000" transform="matrix(1.00, 0.00, -0.00, -1.00, 957.1, 681.0)">o</text><text xml:space="preserve" font-family="Helvetica-Light" font-size="100.8" fill="#000000" transform="matrix(1.00, 0.00, -0.00, -1.00, 1013.2, 681.0)">n</text><text xml:space="preserve" font-family="Helvetica-Light" font-size="100.8" fill="#000000" transform="matrix(1.00, 0.00, -0.00, -1.00, 1069.2, 681.0)">:</text><text xml:space="preserve" font-family="Helvetica-Light" font-size="100.8" fill="#000000" transform="matrix(1.00, 0.00, -0.00, -1.00, 1097.2, 681.0)"> </text><text xml:space="preserve" font-family="Helvetica-Light" font-size="100.8" fill="#000000" transform="matrix(1.00, 0.00, -0.00, -1.00, 1125.2, 681.0)">O</text><text xml:space="preserve" font-family="Helvetica-Light" font-size="100.8" fill="#000000" transform="matrix(1.00, 0.00, -0.00, -1.00, 1203.7, 681.0)">S</text><text xml:space="preserve" font-family="Helvetica-Light" font-size="100.8" fill="#000000" transform="matrix(1.00, 0.00, -0.00, -1.00, 1265.3, 681.0)"> </text><text xml:space="preserve" font-family="Helvetica-Light" font-size="100.8" fill="#000000" transform="matrix(1.00, 0.00, -0.00, -1.00, 1293.3, 681.0)">X</text><text xml:space="preserve" font-family="Helvetica-Light" font-size="100.8" fill="#000000" transform="matrix(1.00, 0.00, -0.00, -1.00, 1354.9, 681.0)"> </text><text xml:space="preserve" font-family="Helvetica-Light" font-size="100.8" fill="#000000" transform="matrix(1.00, 0.00, -0.00, -1.00, 1382.9, 681.0)"> </text><text xml:space="preserve" font-family="Helvetica-Light" font-size="100.8" fill="#000000" transform="matrix(1.00, 0.00, -0.00, -1.00, 152.0, 560.0)">d</text><text xml:space="preserve" font-family="Helvetica-Light" font-size="100.8" fill="#000000" transform="matrix(1.00, 0.00, -0.00, -1.00, 213.6, 560.0)">o</text><text xml:space="preserve" font-family="Helvetica-Light" font-size="100.8" fill="#000000" transform="matrix(1.00, 0.00, -0.00, -1.00, 269.6, 560.0)">e</text><text xml:space="preserve" font-family="Helvetica-Light" font-size="100.8" fill="#000000" transform="matrix(1.00, 0.00, -0.00, -1.00, 325.7, 560.0)">s</text><text xml:space="preserve" font-family="Helvetica-Light" font-size="100.8" fill="#000000" transform="matrix(1.00, 0.00, -0.00, -1.00, 376.1, 560.0)"> </text><text xml:space="preserve" font-family="Helvetica-Light" font-size="100.8" fill="#000000" transform="matrix(1.00, 0.00, -0.00, -1.00, 404.1, 560.0)">r</text><text xml:space="preserve" font-family="Helvetica-Light" font-size="100.8" fill="#000000" transform="matrix(1.00, 0.00, -0.00, -1.00, 435.9, 560.0)">e</text><text xml:space="preserve" font-family="Helvetica-Light" font-size="100.8" fill="#000000" transform="matrix(1.00, 0.00, -0.00, -1.00, 491.9, 560.0)">f</text><text xml:space="preserve" font-family="Helvetica-Light" font-size="100.8" fill="#000000" transform="matrix(1.00, 0.00, -0.00, -1.00, 519.9, 560.0)">e</text><text xml:space="preserve" font-family="Helvetica-Light" font-size="100.8" fill="#000000" transform="matrix(1.00, 0.00, -0.00, -1.00, 576.0, 560.0)">r</text><text xml:space="preserve" font-family="Helvetica-Light" font-size="100.8" fill="#000000" transform="matrix(1.00, 0.00, -0.00, -1.00, 607.7, 560.0)">e</text><text xml:space="preserve" font-family="Helvetica-Light" font-size="100.8" fill="#000000" transform="matrix(1.00, 0.00, -0.00, -1.00, 663.8, 560.0)">n</text><text xml:space="preserve" font-family="Helvetica-Light" font-size="100.8" fill="#000000" transform="matrix(1.00, 0.00, -0.00, -1.00, 719.8, 560.0)">c</text><text xml:space="preserve" font-family="Helvetica-Light" font-size="100.8" fill="#000000" transform="matrix(1.00, 0.00, -0.00, -1.00, 775.9, 560.0)">e</text><text xml:space="preserve" font-family="Helvetica-Light" font-size="100.8" fill="#000000" transform="matrix(1.00, 0.00, -0.00, -1.00, 831.9, 560.0)"> </text><text xml:space="preserve" font-family="Helvetica-Light" font-size="100.8" fill="#000000" transform="matrix(1.00, 0.00, -0.00, -1.00, 859.9, 560.0)">c</text><text xml:space="preserve" font-family="Helvetica-Light" font-size="100.8" fill="#000000" transform="matrix(1.00, 0.00, -0.00, -1.00, 916.0, 560.0)">o</text><text xml:space="preserve" font-family="Helvetica-Light" font-size="100.8" fill="#000000" transform="matrix(1.00, 0.00, -0.00, -1.00, 972.0, 560.0)">u</text><text xml:space="preserve" font-family="Helvetica-Light" font-size="100.8" fill="#000000" transform="matrix(1.00, 0.00, -0.00, -1.00, 1028.1, 560.0)">n</text><text xml:space="preserve" font-family="Helvetica-Light" font-size="100.8" fill="#000000" transform="matrix(1.00, 0.00, -0.00, -1.00, 1084.1, 560.0)">t</text><text xml:space="preserve" font-family="Helvetica-Light" font-size="100.8" fill="#000000" transform="matrix(1.00, 0.00, -0.00, -1.00, 1112.1, 560.0)">i</text><text xml:space="preserve" font-family="Helvetica-Light" font-size="100.8" fill="#000000" transform="matrix(1.00, 0.00, -0.00, -1.00, 1134.5, 560.0)">n</text><text xml:space="preserve" font-family="Helvetica-Light" font-size="100.8" fill="#000000" transform="matrix(1.00, 0.00, -0.00, -1.00, 1190.5, 560.0)">g</text><text xml:space="preserve" font-family="Helvetica-Light" font-size="100.8" fill="#000000" transform="matrix(1.00, 0.00, -0.00, -1.00, 1252.1, 560.0)"> </text><text xml:space="preserve" font-family="Helvetica-Light" font-size="100.8" fill="#000000" transform="matrix(1.00, 0.00, -0.00, -1.00, 1280.2, 560.0)">o</text><text xml:space="preserve" font-family="Helvetica-Light" font-size="100.8" fill="#000000" transform="matrix(1.00, 0.00, -0.00, -1.00, 1336.2, 560.0)">n</text><text xml:space="preserve" font-family="Helvetica-Light" font-size="100.8" fill="#000000" transform="matrix(1.00, 0.00, -0.00, -1.00, 1392.2, 560.0)"> </text><text xml:space="preserve" font-family="Helvetica-Light" font-size="100.8" fill="#000000" transform="matrix(1.00, 0.00, -0.00, -1.00, 1420.3, 560.0)">s</text><text xml:space="preserve" font-family="Helvetica-Light" font-size="100.8" fill="#000000" transform="matrix(1.00, 0.00, -0.00, -1.00, 1470.7, 560.0)">o</text><text xml:space="preserve" font-family="Helvetica-Light" font-size="100.8" fill="#000000" transform="matrix(1.00, 0.00, -0.00, -1.00, 1526.7, 560.0)">c</text><text xml:space="preserve" font-family="Helvetica-Light" font-size="100.8" fill="#000000" transform="matrix(1.00, 0.00, -0.00, -1.00, 1582.8, 560.0)">k</text><text xml:space="preserve" font-family="Helvetica-Light" font-size="100.8" fill="#000000" transform="matrix(1.00, 0.00, -0.00, -1.00, 1633.2, 560.0)">e</text><text xml:space="preserve" font-family="Helvetica-Light" font-size="100.8" fill="#000000" transform="matrix(1.00, 0.00, -0.00, -1.00, 1689.2, 560.0)">t</text><text xml:space="preserve" font-family="Helvetica-Light" font-size="100.8" fill="#000000" transform="matrix(1.00, 0.00, -0.00, -1.00, 1717.2, 560.0)">s</text></g></svg>